<svg version="1.1" id="Layer_1" xmlns="http://www.w3.org/2000/svg" xmlns:xlink="http://www.w3.org/1999/xlink" x="0px" y="0px"
	 width="100%" viewBox="0 0 200 200" enable-background="new 0 0 200 200" xml:space="preserve">
<path fill="#F24415" opacity="1.000000" stroke="none" 
	d="
M89.000000,1.000000 
	C99.354225,1.000000 109.708458,1.000000 120.454407,1.314366 
	C121.123505,2.154809 121.400879,2.680887 121.677399,3.560812 
	C121.684761,17.296837 121.755287,30.679548 121.640533,44.060673 
	C121.621185,46.316315 120.802216,48.565094 120.334343,50.909069 
	C123.759750,50.909069 127.375320,50.909069 131.350067,50.986923 
	C132.898438,50.995998 134.087601,50.927223 135.608414,50.944489 
	C136.618561,50.969543 137.297058,50.908558 138.240265,50.942471 
	C139.388275,50.922028 140.271561,50.806683 141.528275,50.642574 
	C140.513168,49.552956 139.781815,48.767925 139.133438,47.521332 
	C139.137207,36.373085 139.057983,25.686398 139.088623,14.610825 
	C139.387741,12.511209 139.576981,10.800479 139.799057,8.793045 
	C141.874420,9.303559 143.406815,9.680511 144.960266,10.028288 
	C144.981339,9.999112 144.954880,10.063994 145.129715,10.355083 
	C148.546570,12.398117 151.788574,14.150062 155.034851,15.939914 
	C155.039124,15.977820 155.112793,15.957993 155.236023,16.253458 
	C156.458069,17.158436 157.556885,17.767948 158.745270,18.355793 
	C158.834839,18.334127 158.652344,18.308361 158.758118,18.573853 
	C159.201157,18.988331 159.538437,19.137318 160.080872,19.539967 
	C163.214890,22.197628 166.143723,24.601627 169.128281,27.239912 
	C169.380737,27.782818 169.659378,27.905695 170.160004,28.113827 
	C170.906342,28.914227 171.512665,29.443630 172.154266,30.202209 
	C172.375214,30.735195 172.642456,30.851234 173.143585,31.018101 
	C173.573761,31.510166 173.851578,31.763634 174.146957,32.266842 
	C174.446274,32.663647 174.728027,32.810711 175.004379,32.980415 
	C174.998993,33.003056 175.041412,32.983871 175.134674,33.304398 
	C180.431427,41.176205 185.634918,48.727489 190.840881,56.479988 
	C190.843353,56.681206 191.074844,57.010422 191.059967,57.337585 
	C191.677567,58.781017 192.310074,59.897285 192.989273,61.364517 
	C193.269653,62.118713 193.503342,62.521946 193.725037,63.267059 
	C194.736450,66.220741 195.759857,68.832542 196.783600,71.612762 
	C196.783936,71.781166 197.029984,72.011192 197.004639,72.417618 
	C198.319550,77.216019 199.659775,81.608009 201.000000,86.000000 
	C201.000000,86.750000 201.000000,87.500000 200.671509,88.809265 
	C200.272552,90.856384 200.202072,92.344254 200.084900,94.305878 
	C200.047714,99.213913 200.057251,103.648193 200.049774,108.467529 
	C200.355164,110.235054 200.677582,111.617531 201.000000,113.000000 
	C201.000000,114.388893 201.000000,115.777779 200.648010,117.692154 
	C197.185608,127.129250 194.075180,136.040878 190.667908,145.116455 
	C189.260452,147.525726 188.149841,149.771042 187.016174,152.013062 
	C186.993088,152.009750 187.023422,152.045288 186.749725,152.192474 
	C186.049225,153.256714 185.622421,154.173752 185.124954,155.107574 
	C185.054291,155.124374 185.099594,155.262405 184.925629,155.304474 
	C184.523468,155.527756 184.487015,155.741653 184.416046,156.180634 
	C184.112930,156.555573 184.036087,156.738068 183.722076,157.010315 
	C183.375229,157.401733 183.265579,157.703400 182.920563,158.211105 
	C182.123779,159.282898 181.562363,160.148651 180.697754,161.151672 
	C173.796387,167.999725 167.198212,174.710526 160.557678,181.461945 
	C160.515305,181.502548 160.413666,181.561234 160.102051,181.663879 
	C147.779480,190.253220 134.827164,196.574402 120.212288,199.169037 
	C119.069206,199.371979 118.067444,200.370987 117.000000,201.000000 
	C108.645767,201.000000 100.291534,201.000000 91.413643,200.628235 
	C90.669189,199.818100 90.487289,199.023270 90.221825,198.994308 
	C85.474487,198.476273 81.582924,194.421280 76.283478,195.848450 
	C74.720474,196.269363 72.801842,195.259033 71.029091,195.048309 
	C69.709503,194.891449 68.362381,194.966202 66.732132,194.966797 
	C65.931740,194.744705 65.426743,194.493622 64.823166,193.902527 
	C59.968575,190.605576 56.150074,185.650925 49.678116,186.238068 
	C49.736149,186.002045 49.598804,186.470428 49.621799,186.109924 
	C44.883018,181.234085 40.281582,176.531326 35.301754,172.270874 
	C32.110191,169.540375 28.360565,167.462189 24.913116,165.061462 
	C24.965122,165.031311 24.898098,165.131119 24.936954,164.749161 
	C23.936462,162.160858 23.273979,159.653809 21.794048,157.798996 
	C14.470462,148.620209 9.027940,138.467545 6.989664,126.925201 
	C5.843044,120.432137 6.258700,113.663177 6.357621,106.924072 
	C7.092696,106.493874 7.755521,106.144791 7.741965,105.824303 
	C7.497388,100.042046 7.246536,94.256676 6.743778,88.494057 
	C6.694480,87.929008 4.989620,87.508408 4.091338,86.615341 
	C5.667584,72.208061 13.364131,60.510101 17.882620,47.623207 
	C18.257788,48.060726 18.632956,48.498245 19.008121,48.935760 
	C20.339756,48.291256 21.671389,47.646748 23.123474,46.946648 
	C23.161875,46.926388 23.079824,46.961712 22.692205,46.841377 
	C22.398317,45.150162 21.785442,43.132038 22.532736,42.164848 
	C25.357004,38.509544 28.465166,35.032204 31.788797,31.821274 
	C33.495285,30.172657 35.881348,29.227476 38.210983,28.237761 
	C42.884071,30.066916 44.548851,27.474699 45.982536,23.484041 
	C44.357544,23.277130 43.151314,23.123539 42.111298,22.674873 
	C47.697906,17.427452 53.988201,14.126405 61.566948,11.788040 
	C61.744221,13.813830 61.968117,15.227447 61.974907,16.642103 
	C62.010029,23.959543 62.177414,31.283932 61.917416,38.592331 
	C61.764008,42.904545 62.513447,47.782959 57.212757,50.284985 
	C59.806946,53.547703 62.592243,53.978283 66.220100,53.256725 
	C69.425728,52.619152 72.855774,52.860100 76.164764,53.066029 
	C79.158112,53.252316 82.121758,53.915615 85.098503,54.368576 
	C85.407906,53.801785 85.717300,53.234993 86.026695,52.668201 
	C84.682304,50.778217 83.337906,48.888229 81.996155,46.529770 
	C81.997688,35.170998 82.117081,24.278742 81.939857,13.391313 
	C81.862160,8.617827 81.425484,4.028516 87.788155,2.945686 
	C88.287994,2.860620 88.600456,1.674435 89.000000,1.000000 
M123.669609,82.535690 
	C123.150230,82.313103 122.630852,82.090523 121.853432,81.478760 
	C121.654228,81.233025 121.415932,81.034119 121.040245,80.154625 
	C118.751221,78.307098 116.725639,75.516876 114.123528,74.789734 
	C106.477654,72.653122 98.585220,69.669853 90.146400,74.941635 
	C88.094978,75.958717 86.043556,76.975807 83.369690,78.086220 
	C82.865814,78.683456 82.361931,79.280693 81.463272,80.127281 
	C81.214615,80.322693 81.010323,80.556816 80.134476,80.928429 
	C79.042686,82.238007 77.950890,83.547585 76.271790,85.051643 
	C75.838318,85.691750 75.404846,86.331856 74.484085,87.212814 
	C74.015289,87.481850 73.546494,87.750885 72.353363,88.082085 
	C69.230103,89.798454 65.947830,91.415421 67.283279,96.006081 
	C68.286285,95.651459 69.176689,95.336655 70.057625,95.953575 
	C70.048607,99.731514 69.772469,103.532272 70.092949,107.282051 
	C70.578178,112.959297 71.005531,118.813187 76.901596,122.908051 
	C79.209465,124.972672 81.517334,127.037292 84.227379,129.682617 
	C85.152878,130.595810 85.916695,131.889526 87.029335,132.362320 
	C96.352142,136.323807 105.769287,135.833252 115.064255,132.311279 
	C116.256546,131.859497 116.918137,130.007172 117.963326,129.010040 
	C117.963326,129.010040 117.809509,128.813919 118.507713,128.941956 
	C119.353828,127.985100 120.199944,127.028244 121.182182,125.829239 
	C121.182182,125.829239 121.451851,125.762581 122.238808,125.866684 
	C123.173866,124.565598 124.108925,123.264511 125.177406,121.494873 
	C125.320671,121.186859 125.547340,120.963531 126.246620,121.220490 
	C131.326645,119.653290 130.377380,114.620560 131.062561,111.266319 
	C132.774170,102.887146 134.262344,94.071884 126.916710,86.377121 
	C126.327393,85.871498 125.738075,85.365883 125.005180,84.311073 
	C124.666000,83.878731 124.326828,83.446396 123.669609,82.535690 
M128.543777,58.221886 
	C129.645691,54.980534 127.428604,54.964989 125.331734,55.024960 
	C123.065422,55.089771 120.098038,54.344902 120.427193,58.739929 
	C123.031784,58.739929 125.464226,58.739929 128.543777,58.221886 
M135.001358,105.231285 
	C135.416946,106.633743 135.832535,108.036201 136.248123,109.438660 
	C136.906235,109.386108 137.564331,109.333557 138.222427,109.281006 
	C138.378143,106.759949 138.625778,104.238037 138.602646,101.718628 
	C138.598602,101.278862 137.454453,100.849571 136.836884,100.415443 
	C136.224503,101.760345 135.612122,103.105247 135.001358,105.231285 
M165.246109,167.667923 
	C166.182236,168.146622 167.266006,169.172897 168.018372,168.970047 
	C169.036041,168.695679 170.077393,167.607483 170.545258,166.605438 
	C170.754852,166.156570 169.596390,165.068893 169.058762,164.271103 
	C167.880630,165.180954 166.702515,166.090805 165.246109,167.667923 
M47.811455,21.422804 
	C47.806950,21.795931 47.802448,22.169060 47.797943,22.542187 
	C47.952656,22.543896 48.241825,22.556170 48.242641,22.545786 
	C48.271809,22.174612 48.274017,21.801317 47.811455,21.422804 
z"/>
<path fill="#F8F5F3" opacity="1.000000" stroke="none" 
	d="
M64.921745,194.242538 
	C65.426743,194.493622 65.931740,194.744705 66.985229,195.215820 
	C72.689140,197.290558 77.844566,199.145279 83.000000,201.000000 
	C55.755535,201.000000 28.511072,201.000000 1.000000,201.000000 
	C1.000000,183.646683 1.000000,166.291992 1.391216,148.476227 
	C3.314605,148.265823 4.846777,148.516495 6.386086,148.768356 
	C7.198486,142.873871 5.742319,141.174057 1.000000,142.000000 
	C1.000000,141.250000 1.000000,140.500000 1.361984,139.308380 
	C2.379326,136.753326 3.177770,134.670578 3.639838,132.515701 
	C3.948895,131.074371 3.779902,129.530548 3.927229,128.387756 
	C5.001874,130.779251 6.103172,132.764999 6.924787,134.860413 
	C11.267471,145.935745 16.359619,156.552597 24.898098,165.131119 
	C24.898098,165.131119 24.965122,165.031311 24.968870,165.397934 
	C31.994501,174.078064 39.779976,181.483414 49.598804,186.470428 
	C49.598804,186.470428 49.736149,186.002045 49.855423,186.513611 
	C54.957043,189.430969 59.939396,191.836746 64.921745,194.242538 
z"/>
<path fill="#F7F6F5" opacity="1.000000" stroke="none" 
	d="
M193.737030,62.925179 
	C193.503342,62.521946 193.269653,62.118713 193.303192,61.322250 
	C195.862701,57.633202 192.735336,57.788906 191.074844,57.010422 
	C191.074844,57.010422 190.843353,56.681206 190.897308,56.062965 
	C189.595535,52.073780 188.673233,48.433655 186.785095,45.393353 
	C183.758102,40.519299 181.474243,34.716309 175.041412,32.983871 
	C175.041412,32.983871 174.998993,33.003056 174.928757,32.765297 
	C174.689941,32.250999 174.446899,32.080853 174.129379,32.017097 
	C173.851578,31.763634 173.573761,31.510166 173.063065,30.824183 
	C172.651047,30.153757 172.413986,30.014212 172.119003,29.973034 
	C171.512665,29.443630 170.906342,28.914227 170.068405,27.909838 
	C169.641342,27.186197 169.386597,27.043123 169.072540,27.005630 
	C166.143723,24.601627 163.214890,22.197628 159.994415,19.256828 
	C159.352646,18.582806 159.002487,18.445583 158.652344,18.308361 
	C158.652344,18.308361 158.834839,18.334127 158.802856,17.978569 
	C157.551529,17.068005 156.332153,16.512999 155.112793,15.957993 
	C155.112793,15.957993 155.039124,15.977820 154.991913,15.595704 
	C151.614746,13.497057 148.284821,11.780525 144.954880,10.063993 
	C144.954880,10.063994 144.981339,9.999112 144.919647,9.669129 
	C139.557892,6.073342 138.091217,6.648911 136.911987,12.389166 
	C136.792892,12.968793 136.319153,13.475561 135.860992,13.690654 
	C134.143982,12.577127 132.575958,11.789085 130.996750,10.606178 
	C130.380966,5.404470 126.601654,7.499658 123.973160,6.659894 
	C123.181107,5.279162 122.429688,4.243062 121.678261,3.206963 
	C121.400879,2.680887 121.123505,2.154809 120.923065,1.314366 
	C147.593094,1.000000 174.186172,1.000000 201.000000,1.000000 
	C201.000000,27.020479 201.000000,53.041580 200.719009,79.268646 
	C198.921722,77.160461 201.903122,72.792511 197.029984,72.011192 
	C197.029984,72.011192 196.783936,71.781166 196.850449,71.198837 
	C195.503479,68.198883 199.233276,63.654804 193.737030,62.925179 
z"/>
<path fill="#F7F6F5" opacity="1.000000" stroke="none" 
	d="
M183.959259,156.920578 
	C184.036087,156.738068 184.112930,156.555573 184.543915,156.099213 
	C185.045532,155.666473 185.112717,155.478821 185.099594,155.262405 
	C185.099594,155.262405 185.054291,155.124374 185.450455,155.032440 
	C186.238892,153.975433 186.631165,153.010361 187.023422,152.045288 
	C187.023422,152.045288 186.993088,152.009750 187.374146,151.975128 
	C188.825043,149.611160 189.894897,147.281830 190.964752,144.952499 
	C194.075180,136.040878 197.185608,127.129250 200.648010,118.108810 
	C201.000000,145.591278 201.000000,173.182571 201.000000,201.000000 
	C175.312881,201.000000 149.625092,201.000000 123.717758,200.725006 
	C129.103561,197.890747 135.555435,198.468643 140.985306,194.421890 
	C146.540085,190.282059 153.338440,187.826233 159.495605,184.456329 
	C160.137512,184.105011 160.123398,182.555054 160.413666,181.561234 
	C160.413666,181.561234 160.515305,181.502548 160.943756,181.629364 
	C163.108597,181.122375 165.261154,180.934311 166.504929,179.772949 
	C170.576981,175.970749 174.515015,171.979416 178.093338,167.715698 
	C179.593811,165.927811 180.062943,163.274353 181.000946,161.014404 
	C181.562363,160.148651 182.123779,159.282898 183.143616,158.110229 
	C183.868851,157.568893 183.987915,157.274643 183.959259,156.920578 
z"/>
<path fill="#F8F5F5" opacity="1.000000" stroke="none" 
	d="
M1.000000,84.000000 
	C1.000000,56.423283 1.000000,28.846565 1.000000,1.000000 
	C18.019943,1.000000 35.041313,1.000000 52.530354,1.433268 
	C53.664734,4.245807 54.331440,6.625078 54.788269,9.277889 
	C52.469799,10.237000 50.372906,11.453071 48.250237,11.499850 
	C43.549728,11.603440 41.738094,13.627802 42.618843,18.595594 
	C42.566273,18.588045 42.515606,18.681398 42.150539,18.498669 
	C40.950809,19.323149 40.116150,20.330360 39.233540,21.296467 
	C39.185589,21.255363 39.302895,21.208519 39.021568,21.250027 
	C38.518307,21.583315 38.296375,21.875095 38.072323,22.120443 
	C38.070202,22.074013 38.150021,22.121658 37.750984,22.088638 
	C36.291740,23.225775 35.231529,24.395929 34.128159,25.816101 
	C33.692780,26.365362 33.300568,26.664606 32.541321,26.953794 
	C25.342823,25.107330 25.345118,25.106796 26.952925,32.018238 
	C27.026627,32.335060 26.992893,32.676876 26.846468,33.297333 
	C17.405758,44.519516 9.952064,56.466675 5.817936,70.341072 
	C4.440962,74.962280 2.618698,79.450813 1.000000,84.000000 
z"/>
<path fill="#F9F4F2" opacity="1.000000" stroke="none" 
	d="
M61.000000,1.000000 
	C67.687645,1.000000 74.375290,1.000000 81.363297,1.388322 
	C81.445290,2.382232 81.036469,2.987822 81.036484,3.593409 
	C81.036682,18.059488 81.080727,32.525566 81.064491,47.338013 
	C81.431900,48.650200 81.851624,49.616016 82.370338,50.809601 
	C75.248589,50.809601 68.475433,50.809601 62.456474,50.809601 
	C62.456474,36.582043 62.456474,22.530014 62.456474,8.378828 
	C61.576000,8.546728 60.791771,8.696275 60.018044,8.481697 
	C61.573174,6.814003 63.117794,5.510431 65.776459,3.266674 
	C63.469040,3.909212 62.533672,4.169680 61.319088,4.507901 
	C61.200363,3.202698 61.100182,2.101349 61.000000,1.000000 
z"/>
<path fill="#DE512A" opacity="1.000000" stroke="none" 
	d="
M60.007542,8.845821 
	C60.791771,8.696275 61.576000,8.546728 62.456474,8.378828 
	C62.456474,22.530014 62.456474,36.582043 62.456474,50.809601 
	C68.475433,50.809601 75.248589,50.809601 82.370338,50.809601 
	C81.851624,49.616016 81.431900,48.650200 81.283653,47.341560 
	C81.555138,46.998737 81.993515,46.998245 81.993515,46.998245 
	C83.337906,48.888229 84.682304,50.778217 86.026695,52.668201 
	C85.717300,53.234993 85.407906,53.801785 85.098503,54.368576 
	C82.121758,53.915615 79.158112,53.252316 76.164764,53.066029 
	C72.855774,52.860100 69.425728,52.619152 66.220100,53.256725 
	C62.592243,53.978283 59.806946,53.547703 57.212757,50.284985 
	C62.513447,47.782959 61.764008,42.904545 61.917416,38.592331 
	C62.177414,31.283932 62.010029,23.959543 61.974907,16.642103 
	C61.968117,15.227447 61.744221,13.813830 61.566948,11.788040 
	C53.988201,14.126405 47.697906,17.427452 41.821686,22.830502 
	C40.230667,24.842272 39.095486,26.403337 37.960300,27.964405 
	C35.881348,29.227476 33.495285,30.172657 31.788797,31.821274 
	C28.465166,35.032204 25.357004,38.509544 22.532736,42.164848 
	C21.785442,43.132038 22.398317,45.150162 22.693319,46.842861 
	C23.000000,47.000000 23.003025,47.002243 23.003025,47.002243 
	C21.671389,47.646748 20.339756,48.291256 19.008121,48.935760 
	C18.632956,48.498245 18.257788,48.060726 17.882620,47.623207 
	C13.364131,60.510101 5.667584,72.208061 4.075818,86.944275 
	C4.016423,88.118164 4.010674,88.557709 3.994884,89.370636 
	C3.982763,90.490639 3.980682,91.237244 3.988851,91.991776 
	C3.999100,91.999695 3.981558,91.984917 3.768237,92.097916 
	C3.291708,92.416512 3.114840,92.680061 3.016834,93.419243 
	C3.667845,97.559753 4.326331,101.282593 5.093855,105.225876 
	C5.401295,105.720184 5.658174,105.918159 5.969960,106.284821 
	C5.966390,106.529373 5.970544,107.018509 5.970544,107.018509 
	C6.258700,113.663177 5.843044,120.432137 6.989664,126.925201 
	C9.027940,138.467545 14.470462,148.620209 21.794048,157.798996 
	C23.273979,159.653809 23.936462,162.160858 24.936954,164.749161 
	C16.359619,156.552597 11.267471,145.935745 6.924787,134.860413 
	C6.103172,132.764999 5.001874,130.779251 4.001317,127.985779 
	C2.982006,123.819099 1.991003,120.409546 1.000000,117.000000 
	C1.000000,115.933327 1.000000,114.866661 1.290725,113.237610 
	C1.677354,111.808540 1.773257,110.941833 1.913720,109.702560 
	C1.940566,108.583542 1.922854,107.837112 1.932204,106.620407 
	C1.639511,101.433426 1.319755,96.716713 1.000000,92.000000 
	C1.000000,89.629440 1.000000,87.258888 1.000000,84.444168 
	C2.618698,79.450813 4.440962,74.962280 5.817936,70.341072 
	C9.952064,56.466675 17.405758,44.519516 27.156406,33.185394 
	C29.388836,30.843395 31.148594,28.903624 32.908356,26.963852 
	C33.300568,26.664606 33.692780,26.365362 34.444622,25.690006 
	C35.919506,24.249817 37.034763,23.185738 38.150017,22.121658 
	C38.150021,22.121658 38.070202,22.074013 38.355400,22.077770 
	C38.861359,21.790525 39.082127,21.499521 39.302895,21.208519 
	C39.302895,21.208519 39.185589,21.255363 39.543026,21.231979 
	C40.772175,20.366198 41.643890,19.523798 42.515606,18.681396 
	C42.515606,18.681398 42.566273,18.588045 42.938572,18.555424 
	C48.617325,15.381027 53.923779,12.239253 59.446877,9.103499 
	C59.663525,9.109519 60.007542,8.845820 60.007542,8.845821 
z"/>
<path fill="#FEDDC7" opacity="1.000000" stroke="none" 
	d="
M160.102066,181.663879 
	C160.123398,182.555054 160.137512,184.105011 159.495605,184.456329 
	C153.338440,187.826233 146.540085,190.282059 140.985306,194.421890 
	C135.555435,198.468643 129.103561,197.890747 123.249100,200.725006 
	C121.285645,201.000000 119.571281,201.000000 117.428467,201.000000 
	C118.067444,200.370987 119.069206,199.371979 120.212288,199.169037 
	C134.827164,196.574402 147.779480,190.253220 160.102066,181.663879 
z"/>
<path fill="#DE512A" opacity="1.000000" stroke="none" 
	d="
M83.444168,201.000000 
	C77.844566,199.145279 72.689140,197.290558 67.280617,195.186813 
	C68.362381,194.966202 69.709503,194.891449 71.029091,195.048309 
	C72.801842,195.259033 74.720474,196.269363 76.283478,195.848450 
	C81.582924,194.421280 85.474487,198.476273 90.221825,198.994308 
	C90.487289,199.023270 90.669189,199.818100 90.944992,200.628235 
	C88.629440,201.000000 86.258888,201.000000 83.444168,201.000000 
z"/>
<path fill="#EFFAEF" opacity="1.000000" stroke="none" 
	d="
M60.018044,8.481697 
	C60.007542,8.845820 59.663525,9.109519 59.023849,9.073149 
	C57.255497,9.025970 56.126820,9.015160 54.998146,9.004350 
	C54.331440,6.625078 53.664734,4.245807 52.999012,1.433268 
	C55.370556,1.000000 57.741116,1.000000 60.555836,1.000000 
	C61.100182,2.101349 61.200363,3.202698 61.319088,4.507901 
	C62.533672,4.169680 63.469040,3.909212 65.776459,3.266674 
	C63.117794,5.510431 61.573174,6.814003 60.018044,8.481697 
z"/>
<path fill="#CC5131" opacity="1.000000" stroke="none" 
	d="
M81.996155,46.529770 
	C81.993515,46.998245 81.555138,46.998737 81.335976,46.995193 
	C81.080727,32.525566 81.036682,18.059488 81.036484,3.593409 
	C81.036469,2.987822 81.445290,2.382232 81.831825,1.388322 
	C84.041664,1.000000 86.083336,1.000000 88.562500,1.000000 
	C88.600456,1.674435 88.287994,2.860620 87.788155,2.945686 
	C81.425484,4.028516 81.862160,8.617827 81.939857,13.391313 
	C82.117081,24.278742 81.997688,35.170998 81.996155,46.529770 
z"/>
<path fill="#F9F3F6" opacity="1.000000" stroke="none" 
	d="
M1.000000,117.468582 
	C1.991003,120.409546 2.982006,123.819099 3.898921,127.630615 
	C3.779902,129.530548 3.948895,131.074371 3.639838,132.515701 
	C3.177770,134.670578 2.379326,136.753326 1.361984,138.933380 
	C1.000000,131.979050 1.000000,124.958107 1.000000,117.468582 
z"/>
<path fill="#FEEEFA" opacity="1.000000" stroke="none" 
	d="
M1.000000,142.428467 
	C5.742319,141.174057 7.198486,142.873871 6.386086,148.768356 
	C4.846777,148.516495 3.314605,148.265823 1.391216,148.007568 
	C1.000000,146.285645 1.000000,144.571289 1.000000,142.428467 
z"/>
<path fill="#FCE5D7" opacity="1.000000" stroke="none" 
	d="
M197.004639,72.417618 
	C201.903122,72.792511 198.921722,77.160461 200.719009,79.737305 
	C201.000000,81.714355 201.000000,83.428719 201.000000,85.571533 
	C199.659775,81.608009 198.319550,77.216019 197.004639,72.417618 
z"/>
<path fill="#F8603B" opacity="1.000000" stroke="none" 
	d="
M1.000000,92.466118 
	C1.319755,96.716713 1.639511,101.433426 1.706795,106.593056 
	C1.454324,107.035973 1.000000,107.000000 1.000000,107.000000 
	C1.000000,102.310745 1.000000,97.621490 1.000000,92.466118 
z"/>
<path fill="#F9582E" opacity="1.000000" stroke="none" 
	d="
M200.066772,108.082466 
	C200.057251,103.648193 200.047714,99.213913 200.303513,94.337692 
	C200.568848,93.895744 201.000000,94.000000 201.000000,94.000000 
	C201.000000,98.356903 201.000000,102.713799 200.766754,107.556732 
	C200.533524,108.042763 200.066788,108.082466 200.066772,108.082466 
z"/>
<path fill="#FF8A6D" opacity="1.000000" stroke="none" 
	d="
M200.049774,108.467529 
	C200.066788,108.082466 200.533524,108.042763 200.766754,108.021378 
	C201.000000,109.388893 201.000000,110.777779 201.000000,112.583336 
	C200.677582,111.617531 200.355164,110.235054 200.049774,108.467529 
z"/>
<path fill="#FFA178" opacity="1.000000" stroke="none" 
	d="
M201.000000,93.583336 
	C201.000000,94.000000 200.568848,93.895744 200.350220,93.863930 
	C200.202072,92.344254 200.272552,90.856384 200.671509,89.184265 
	C201.000000,90.388893 201.000000,91.777779 201.000000,93.583336 
z"/>
<path fill="#FFA37F" opacity="1.000000" stroke="none" 
	d="
M1.869161,110.075134 
	C1.773257,110.941833 1.677354,111.808540 1.290725,112.837616 
	C1.000000,112.250000 1.000000,111.500000 1.217584,110.390381 
	C1.435169,110.030762 1.869162,110.075134 1.869161,110.075134 
z"/>
<path fill="#FF7F5A" opacity="1.000000" stroke="none" 
	d="
M1.913720,109.702560 
	C1.869162,110.075134 1.435169,110.030762 1.217584,110.015381 
	C1.000000,109.250000 1.000000,108.500000 1.000000,107.375000 
	C1.000000,107.000000 1.454324,107.035973 1.679733,107.063324 
	C1.922854,107.837112 1.940566,108.583542 1.913720,109.702560 
z"/>
<path fill="#F7F7F7" opacity="1.000000" stroke="none" 
	d="
M121.451851,125.762581 
	C121.451851,125.762581 121.182182,125.829239 120.879333,125.919884 
	C120.576492,126.010529 120.104301,126.034706 119.849274,126.112976 
	C119.414955,126.486580 119.235664,126.781906 119.030724,127.040115 
	C119.005074,127.002998 119.076271,127.058472 118.838394,127.118027 
	C118.296333,127.340172 118.089981,127.585167 117.893417,128.129318 
	C117.805382,128.346069 117.809509,128.813919 117.809509,128.813919 
	C117.809509,128.813919 117.963326,129.010040 117.589874,128.889465 
	C116.822342,128.869797 116.428268,128.970673 115.822838,128.821777 
	C112.393021,130.004837 109.174568,131.437683 105.602676,132.972717 
	C104.517487,133.083786 103.785728,133.092667 102.777924,132.805176 
	C97.655571,131.026764 92.809273,129.544693 88.080887,127.834930 
	C88.467896,127.404510 88.736984,127.201805 89.353714,127.035324 
	C93.714577,127.674042 95.753723,125.737228 94.072083,122.475960 
	C92.848625,120.103271 90.839218,117.882629 88.646950,116.364082 
	C87.459389,115.541481 85.155190,116.330948 83.354706,116.393204 
	C83.570343,117.927277 83.785973,119.461349 83.789368,121.254272 
	C82.710213,121.671196 81.843307,121.829277 80.812729,121.686211 
	C79.082184,120.602448 77.515305,119.819839 75.971863,119.017029 
	C75.995308,118.996834 75.960388,119.046852 75.983658,118.660248 
	C75.021332,116.507019 74.035728,114.740402 73.021500,112.977280 
	C72.992874,112.980774 73.036583,112.942978 73.042648,112.668518 
	C72.796761,111.930412 72.544815,111.466774 72.175583,110.645050 
	C72.016411,109.537262 71.974525,108.787544 72.218407,107.765686 
	C72.300934,104.978134 72.097694,102.462738 71.873779,99.581802 
	C71.963860,98.495483 72.074608,97.774681 72.519524,96.992096 
	C74.396767,94.627579 76.223984,92.464272 77.434052,89.998146 
	C82.849724,78.960915 96.457855,73.904114 107.089317,76.482925 
	C108.999252,76.946205 111.070786,76.743256 113.351929,76.898232 
	C114.131317,77.217163 114.626495,77.485771 115.065460,78.074310 
	C114.988609,78.609650 114.967979,78.825058 114.694992,79.232330 
	C114.550537,80.761574 114.221581,82.371941 114.852890,83.382263 
	C116.395706,85.851295 118.266365,88.149315 120.238480,90.302361 
	C121.266113,91.424271 122.787643,92.093788 124.442200,92.973122 
	C126.230606,93.629181 127.662888,94.279770 129.058228,94.969635 
	C129.021271,95.008919 129.083664,94.924553 129.042831,95.219070 
	C129.272446,96.010719 129.542908,96.507843 129.955505,97.401077 
	C131.420242,104.109505 130.780304,110.187027 127.546112,116.004242 
	C123.070969,116.786697 123.542213,120.190514 123.100754,123.064087 
	C123.088905,123.051346 123.092049,123.070740 122.848083,123.165909 
	C122.450722,123.562363 122.297318,123.863655 122.143425,124.101479 
	C122.142937,124.038017 122.163017,124.169304 121.981758,124.150635 
	C121.708290,124.406792 121.616074,124.681618 121.485703,125.156174 
	C121.447548,125.355911 121.451851,125.762581 121.451851,125.762581 
z"/>
<path fill="#FEF4F5" opacity="1.000000" stroke="none" 
	d="
M137.975571,50.847569 
	C137.297058,50.908558 136.618561,50.969543 135.574158,50.715858 
	C135.208267,50.401184 134.993896,49.993855 134.995697,49.525906 
	C135.002594,38.371868 135.007706,27.685781 135.252579,16.825443 
	C135.666443,16.096054 135.840546,15.540915 136.385162,14.989908 
	C137.496704,14.995929 138.237732,14.997819 138.978760,14.999710 
	C139.057983,25.686398 139.137207,36.373085 138.839844,47.793488 
	C138.300690,49.300655 138.138123,50.074112 137.975571,50.847569 
z"/>
<path fill="#FEECE1" opacity="1.000000" stroke="none" 
	d="
M121.677399,3.560810 
	C122.429688,4.243062 123.181107,5.279162 123.968414,7.064264 
	C124.002556,10.875434 124.000824,13.937603 123.996460,17.333796 
	C123.994820,18.113253 123.995804,18.558687 123.995743,19.464443 
	C123.996216,23.615404 123.997742,27.306042 123.997231,31.464989 
	C123.995995,36.550968 123.757660,41.188358 124.135780,45.774929 
	C124.257423,47.250393 126.004021,48.591896 127.406067,49.997562 
	C128.868164,50.003666 129.931427,50.006889 130.994568,50.234856 
	C130.994431,50.459599 130.990891,50.909069 130.990891,50.909069 
	C127.375320,50.909069 123.759750,50.909069 120.334343,50.909069 
	C120.802216,48.565094 121.621185,46.316315 121.640533,44.060673 
	C121.755287,30.679548 121.684761,17.296837 121.677399,3.560810 
z"/>
<path fill="#FEDDC7" opacity="1.000000" stroke="none" 
	d="
M180.697754,161.151672 
	C180.062943,163.274353 179.593811,165.927811 178.093338,167.715698 
	C174.515015,171.979416 170.576981,175.970749 166.504929,179.772949 
	C165.261154,180.934311 163.108597,181.122375 160.986130,181.588745 
	C167.198212,174.710526 173.796387,167.999725 180.697754,161.151672 
z"/>
<path fill="#DE512A" opacity="1.000000" stroke="none" 
	d="
M49.621799,186.109924 
	C39.779976,181.483414 31.994501,174.078064 24.916862,165.428070 
	C28.360565,167.462189 32.110191,169.540375 35.301754,172.270874 
	C40.281582,176.531326 44.883018,181.234085 49.621799,186.109924 
z"/>
<path fill="#DD542F" opacity="1.000000" stroke="none" 
	d="
M127.919868,115.998871 
	C130.780304,110.187027 131.420242,104.109505 129.998566,97.108429 
	C129.627548,95.921303 129.355606,95.422928 129.083664,94.924553 
	C129.083664,94.924553 129.021271,95.008919 129.072281,94.603104 
	C128.199265,92.004509 127.275230,89.811737 126.514374,87.463211 
	C126.677551,87.307457 127.003761,86.995773 127.003761,86.995773 
	C134.262344,94.071884 132.774170,102.887146 131.062561,111.266319 
	C130.377380,114.620560 131.326645,119.653290 126.102631,120.688843 
	C126.612389,118.771088 127.266129,117.384979 127.919868,115.998871 
z"/>
<path fill="#FCE5D7" opacity="1.000000" stroke="none" 
	d="
M175.134674,33.304398 
	C181.474243,34.716309 183.758102,40.519299 186.785095,45.393353 
	C188.673233,48.433655 189.595535,52.073780 190.894836,55.861748 
	C185.634918,48.727489 180.431427,41.176205 175.134674,33.304398 
z"/>
<path fill="#CB5E40" opacity="1.000000" stroke="none" 
	d="
M116.034195,129.071564 
	C116.428268,128.970673 116.822342,128.869797 117.520996,128.786285 
	C116.918137,130.007172 116.256546,131.859497 115.064255,132.311279 
	C105.769287,135.833252 96.352142,136.323807 87.029335,132.362320 
	C85.916695,131.889526 85.152878,130.595810 84.314880,129.358978 
	C84.594810,129.025620 84.787224,129.015915 85.317932,129.123230 
	C91.075836,132.237823 96.691696,134.351257 103.053970,133.101532 
	C103.785728,133.092667 104.517487,133.083786 105.984528,133.014725 
	C109.824600,131.660202 112.929398,130.365891 116.034195,129.071564 
z"/>
<path fill="#F6410B" opacity="1.000000" stroke="none" 
	d="
M6.357621,106.924072 
	C5.970544,107.018509 5.966390,106.529373 5.869251,106.057709 
	C5.574932,105.304031 5.312500,105.110489 4.984817,105.005424 
	C4.326331,101.282593 3.667845,97.559753 3.228080,93.304047 
	C3.710999,92.567558 3.889251,92.305473 3.981558,91.984917 
	C3.981558,91.984917 3.999100,91.999695 4.239228,91.812057 
	C4.321212,90.748695 4.163068,89.872971 4.004925,88.997246 
	C4.010674,88.557709 4.016423,88.118164 4.037691,87.349693 
	C4.989620,87.508408 6.694480,87.929008 6.743778,88.494057 
	C7.246536,94.256676 7.497388,100.042046 7.741965,105.824303 
	C7.755521,106.144791 7.092696,106.493874 6.357621,106.924072 
z"/>
<path fill="#DD542F" opacity="1.000000" stroke="none" 
	d="
M115.121674,77.754372 
	C114.626495,77.485771 114.131317,77.217163 113.121140,76.612976 
	C105.605453,73.185432 98.445404,73.537186 91.134125,75.179871 
	C91.047623,75.072014 90.872177,74.858276 90.872177,74.858276 
	C98.585220,69.669853 106.477654,72.653122 114.123528,74.789734 
	C116.725639,75.516876 118.751221,78.307098 121.029648,80.570984 
	C121.019051,80.987343 120.902618,81.096039 120.584702,80.989319 
	C118.551750,79.839859 116.836716,78.797119 115.121674,77.754372 
z"/>
<path fill="#D45B41" opacity="1.000000" stroke="none" 
	d="
M71.932640,108.037827 
	C71.974525,108.787544 72.016411,109.537262 72.128723,110.923874 
	C72.478294,112.021500 72.757439,112.482239 73.036583,112.942978 
	C73.036583,112.942978 72.992874,112.980774 73.035530,113.327759 
	C74.038925,115.465454 74.999657,117.256149 75.960388,119.046852 
	C75.960388,119.046852 75.995308,118.996834 76.017456,119.326355 
	C76.385696,120.412766 76.731781,121.169662 76.992218,122.003479 
	C76.906586,122.080399 76.729828,122.227928 76.729828,122.227928 
	C71.005531,118.813187 70.578178,112.959297 70.092949,107.282051 
	C69.772469,103.532272 70.048607,99.731514 70.316101,95.287018 
	C71.411674,93.093544 72.248779,91.566628 73.365158,90.049713 
	C73.830162,90.074318 74.015892,90.088936 74.166946,90.467545 
	C73.483299,92.905663 72.834328,94.979774 72.185356,97.053886 
	C72.074608,97.774681 71.963860,98.495483 71.663620,99.900192 
	C71.626968,103.068687 71.779800,105.553253 71.932640,108.037827 
z"/>
<path fill="#ED470D" opacity="1.000000" stroke="none" 
	d="
M128.220215,58.480907 
	C125.464226,58.739929 123.031784,58.739929 120.427193,58.739929 
	C120.098038,54.344902 123.065422,55.089771 125.331734,55.024960 
	C127.428604,54.964989 129.645691,54.980534 128.220215,58.480907 
z"/>
<path fill="#F54408" opacity="1.000000" stroke="none" 
	d="
M38.210983,28.237759 
	C39.095486,26.403337 40.230667,24.842272 41.655464,23.125576 
	C43.151314,23.123539 44.357544,23.277130 45.982536,23.484041 
	C44.548851,27.474699 42.884071,30.066916 38.210983,28.237759 
z"/>
<path fill="#DE512A" opacity="1.000000" stroke="none" 
	d="
M64.823166,193.902527 
	C59.939396,191.836746 54.957043,189.430969 49.797390,186.749634 
	C56.150074,185.650925 59.968575,190.605576 64.823166,193.902527 
z"/>
<path fill="#F6401C" opacity="1.000000" stroke="none" 
	d="
M135.000549,104.840721 
	C135.612122,103.105247 136.224503,101.760345 136.836884,100.415443 
	C137.454453,100.849571 138.598602,101.278862 138.602646,101.718628 
	C138.625778,104.238037 138.378143,106.759949 138.222427,109.281006 
	C137.564331,109.333557 136.906235,109.386108 136.248123,109.438660 
	C135.832535,108.036201 135.416946,106.633743 135.000549,104.840721 
z"/>
<path fill="#FB3F16" opacity="1.000000" stroke="none" 
	d="
M73.085884,90.039719 
	C72.248779,91.566628 71.411674,93.093544 70.320831,94.821152 
	C69.176689,95.336655 68.286285,95.651459 67.283279,96.006081 
	C65.947830,91.415421 69.230103,89.798454 72.698853,88.387161 
	C73.058189,89.141403 73.072037,89.590561 73.085884,90.039719 
z"/>
<path fill="#FEECE1" opacity="1.000000" stroke="none" 
	d="
M139.088623,14.610825 
	C138.237732,14.997819 137.496704,14.995929 136.382172,14.747591 
	C136.008652,14.501144 136.009995,14.016144 136.009995,14.016142 
	C136.319153,13.475561 136.792892,12.968793 136.911987,12.389166 
	C138.091217,6.648911 139.557892,6.073342 144.898590,9.698305 
	C143.406815,9.680511 141.874420,9.303559 139.799057,8.793045 
	C139.576981,10.800479 139.387741,12.511209 139.088623,14.610825 
z"/>
<path fill="#EB470B" opacity="1.000000" stroke="none" 
	d="
M165.385254,167.334290 
	C166.702515,166.090805 167.880630,165.180954 169.058762,164.271103 
	C169.596390,165.068893 170.754852,166.156570 170.545258,166.605438 
	C170.077393,167.607483 169.036041,168.695679 168.018372,168.970047 
	C167.266006,169.172897 166.182236,168.146622 165.385254,167.334290 
z"/>
<path fill="#FEECE1" opacity="1.000000" stroke="none" 
	d="
M145.129715,10.355083 
	C148.284821,11.780525 151.614746,13.497057 154.987640,15.557797 
	C151.788574,14.150062 148.546570,12.398117 145.129715,10.355083 
z"/>
<path fill="#D45B41" opacity="1.000000" stroke="none" 
	d="
M84.979645,129.006210 
	C84.787224,129.015915 84.594810,129.025620 84.113792,129.068619 
	C81.517334,127.037292 79.209465,124.972672 76.815712,122.567993 
	C76.729828,122.227928 76.906586,122.080399 77.287430,122.154572 
	C80.105400,124.487900 82.542519,126.747055 84.979645,129.006210 
z"/>
<path fill="#FCE0D1" opacity="1.000000" stroke="none" 
	d="
M127.546112,116.004242 
	C127.266129,117.384979 126.612389,118.771088 125.908035,120.491043 
	C125.547340,120.963531 125.320671,121.186859 124.842361,121.820030 
	C124.042412,122.455734 123.577507,122.766281 123.112602,123.076836 
	C123.542213,120.190514 123.070969,116.786697 127.546112,116.004242 
z"/>
<path fill="#FCE5D7" opacity="1.000000" stroke="none" 
	d="
M193.725037,63.267059 
	C199.233276,63.654804 195.503479,68.198883 196.850113,71.030426 
	C195.759857,68.832542 194.736450,66.220741 193.725037,63.267059 
z"/>
<path fill="#FEDDC7" opacity="1.000000" stroke="none" 
	d="
M190.667908,145.116455 
	C189.894897,147.281830 188.825043,149.611160 187.397217,151.978424 
	C188.149841,149.771042 189.260452,147.525726 190.667908,145.116455 
z"/>
<path fill="#FCE5D7" opacity="1.000000" stroke="none" 
	d="
M191.059967,57.337585 
	C192.735336,57.788906 195.862701,57.633202 193.256500,60.971287 
	C192.310074,59.897285 191.677567,58.781017 191.059967,57.337585 
z"/>
<path fill="#DD542F" opacity="1.000000" stroke="none" 
	d="
M83.992134,77.992889 
	C86.043556,76.975807 88.094978,75.958717 90.509293,74.899956 
	C90.872177,74.858276 91.047623,75.072014 90.891922,75.416000 
	C88.712585,76.733856 86.688950,77.707726 84.497086,78.509361 
	C84.328850,78.337120 83.992134,77.992889 83.992134,77.992889 
z"/>
<path fill="#DD542F" opacity="1.000000" stroke="none" 
	d="
M76.859093,84.857162 
	C77.950890,83.547585 79.042686,82.238007 80.541222,80.934525 
	C80.947968,80.940628 81.047737,81.049629 80.929871,81.344711 
	C79.626503,82.833344 78.440994,84.026886 77.155571,85.130508 
	C77.055656,85.040581 76.859093,84.857162 76.859093,84.857162 
z"/>
<path fill="#FEECE1" opacity="1.000000" stroke="none" 
	d="
M138.240265,50.942471 
	C138.138123,50.074112 138.300690,49.300655 138.756866,48.255047 
	C139.781815,48.767925 140.513168,49.552956 141.528275,50.642574 
	C140.271561,50.806683 139.388275,50.922028 138.240265,50.942471 
z"/>
<path fill="#CB5E40" opacity="1.000000" stroke="none" 
	d="
M123.100754,123.064087 
	C123.577507,122.766281 124.042412,122.455734 124.775650,122.054306 
	C124.108925,123.264511 123.173866,124.565598 121.845329,125.814636 
	C121.451851,125.762581 121.447548,125.355911 121.708939,125.010895 
	C122.034561,124.500359 122.098785,124.334831 122.163017,124.169304 
	C122.163017,124.169304 122.142937,124.038017 122.398041,124.020767 
	C122.799446,123.692589 122.945747,123.381668 123.092056,123.070740 
	C123.092049,123.070740 123.088905,123.051346 123.100754,123.064087 
z"/>
<path fill="#FEECE1" opacity="1.000000" stroke="none" 
	d="
M155.236023,16.253458 
	C156.332153,16.512999 157.551529,17.068005 158.713287,18.000237 
	C157.556885,17.767948 156.458069,17.158436 155.236023,16.253458 
z"/>
<path fill="#DD542F" opacity="1.000000" stroke="none" 
	d="
M73.365158,90.049713 
	C73.072037,89.590561 73.058189,89.141403 73.061020,88.356079 
	C73.546494,87.750885 74.015289,87.481850 74.906113,87.254585 
	C75.328133,87.296356 75.685394,87.620193 75.600433,87.899780 
	C75.077522,88.820755 74.639572,89.462151 74.201614,90.103546 
	C74.015892,90.088936 73.830162,90.074318 73.365158,90.049713 
z"/>
<path fill="#CB5E40" opacity="1.000000" stroke="none" 
	d="
M118.158615,128.877930 
	C117.809509,128.813919 117.805382,128.346069 118.149719,128.097321 
	C118.688126,127.585213 118.882202,127.321846 119.076271,127.058472 
	C119.076271,127.058472 119.005074,127.002998 119.282608,126.959419 
	C119.741539,126.622131 119.922920,126.328423 120.104301,126.034706 
	C120.104301,126.034706 120.576492,126.010529 120.811279,126.040955 
	C120.199944,127.028244 119.353828,127.985100 118.158615,128.877930 
z"/>
<path fill="#FEDDC7" opacity="1.000000" stroke="none" 
	d="
M186.749725,152.192474 
	C186.631165,153.010361 186.238892,153.975433 185.521118,155.015625 
	C185.622421,154.173752 186.049225,153.256714 186.749725,152.192474 
z"/>
<path fill="#FEF4F5" opacity="1.000000" stroke="none" 
	d="
M131.350067,50.986923 
	C130.990891,50.909069 130.994431,50.459599 130.997177,50.229763 
	C130.999924,49.999928 131.004501,49.993790 131.337097,49.993946 
	C132.113312,49.991005 132.556900,49.987907 133.332779,49.987415 
	C134.108002,49.991299 134.550949,49.992577 134.993896,49.993855 
	C134.993896,49.993855 135.208267,50.401184 135.242523,50.629814 
	C134.087601,50.927223 132.898438,50.995998 131.350067,50.986923 
z"/>
<path fill="#DD542F" opacity="1.000000" stroke="none" 
	d="
M81.858047,79.877922 
	C82.361931,79.280693 82.865814,78.683456 83.680908,78.039551 
	C83.992134,77.992889 84.328850,78.337120 84.292419,78.723785 
	C83.566315,79.477531 82.876633,79.844597 82.106384,80.126595 
	C82.025826,80.041519 81.858047,79.877922 81.858047,79.877922 
z"/>
<path fill="#DE512A" opacity="1.000000" stroke="none" 
	d="
M48.045719,21.425562 
	C48.274017,21.801317 48.271809,22.174612 48.242641,22.545786 
	C48.241825,22.556170 47.952656,22.543896 47.797943,22.542187 
	C47.802448,22.169060 47.806950,21.795931 48.045719,21.425562 
z"/>
<path fill="#DD542F" opacity="1.000000" stroke="none" 
	d="
M125.148758,84.860260 
	C125.738075,85.365883 126.327393,85.871498 126.960236,86.686447 
	C127.003761,86.995773 126.677551,87.307457 126.301018,87.259277 
	C125.537590,86.539818 125.150688,85.868530 124.860428,85.113457 
	C124.957077,85.029671 125.148758,84.860260 125.148758,84.860260 
z"/>
<path fill="#DD542F" opacity="1.000000" stroke="none" 
	d="
M75.149750,87.134163 
	C75.404846,86.331856 75.838318,85.691750 76.565445,84.954407 
	C76.859093,84.857162 77.055656,85.040581 77.081352,85.414215 
	C76.633163,86.398628 76.159279,87.009407 75.685394,87.620193 
	C75.685394,87.620193 75.328133,87.296356 75.149750,87.134163 
z"/>
<path fill="#DD542F" opacity="1.000000" stroke="none" 
	d="
M122.111473,81.867935 
	C122.630852,82.090523 123.150230,82.313103 123.658325,82.951164 
	C123.647049,83.366638 123.306778,83.719543 123.077896,83.569786 
	C122.518005,82.995636 122.187012,82.571243 121.920776,82.077942 
	C121.985535,82.009033 122.111473,81.867935 122.111473,81.867935 
z"/>
<path fill="#DD542F" opacity="1.000000" stroke="none" 
	d="
M123.817352,83.190346 
	C124.326828,83.446396 124.666000,83.878731 125.076965,84.585663 
	C125.148758,84.860260 124.957077,85.029671 124.628250,84.987854 
	C123.968544,84.537201 123.637657,84.128372 123.306778,83.719543 
	C123.306778,83.719543 123.647049,83.366638 123.817352,83.190346 
z"/>
<path fill="#DD542F" opacity="1.000000" stroke="none" 
	d="
M121.078796,80.934692 
	C121.415932,81.034119 121.654228,81.233025 121.982452,81.673347 
	C122.111473,81.867935 121.985535,82.009033 121.696381,81.972328 
	C121.149132,81.709801 120.980927,81.429939 120.902618,81.096039 
	C120.902618,81.096039 121.019051,80.987343 121.078796,80.934692 
z"/>
<path fill="#FCE5D7" opacity="1.000000" stroke="none" 
	d="
M169.128281,27.239914 
	C169.386597,27.043123 169.641342,27.186197 169.928375,27.638840 
	C169.659378,27.905695 169.380737,27.782818 169.128281,27.239914 
z"/>
<path fill="#FCE5D7" opacity="1.000000" stroke="none" 
	d="
M172.154266,30.202208 
	C172.413986,30.014212 172.651047,30.153757 172.910706,30.585583 
	C172.642456,30.851234 172.375214,30.735195 172.154266,30.202208 
z"/>
<path fill="#FCE5D7" opacity="1.000000" stroke="none" 
	d="
M174.146957,32.266838 
	C174.446899,32.080853 174.689941,32.250999 174.934143,32.742653 
	C174.728027,32.810711 174.446274,32.663647 174.146957,32.266838 
z"/>
<path fill="#FEDDC7" opacity="1.000000" stroke="none" 
	d="
M183.722076,157.010315 
	C183.987915,157.274643 183.868851,157.568893 183.378998,157.904205 
	C183.265579,157.703400 183.375229,157.401733 183.722076,157.010315 
z"/>
<path fill="#FEDDC7" opacity="1.000000" stroke="none" 
	d="
M184.925629,155.304474 
	C185.112717,155.478821 185.045532,155.666473 184.770172,155.906784 
	C184.487015,155.741653 184.523468,155.527756 184.925629,155.304474 
z"/>
<path fill="#FEECE1" opacity="1.000000" stroke="none" 
	d="
M158.758118,18.573853 
	C159.002487,18.445583 159.352646,18.582806 159.789246,19.003168 
	C159.538437,19.137318 159.201157,18.988331 158.758118,18.573853 
z"/>
<path fill="#DE512A" opacity="1.000000" stroke="none" 
	d="
M22.998886,46.998520 
	C23.079824,46.961712 23.161875,46.926388 23.123474,46.946651 
	C23.003025,47.002243 23.000000,47.000000 22.998886,46.998520 
z"/>
<path fill="#DD542F" opacity="1.000000" stroke="none" 
	d="
M80.899185,80.885147 
	C81.010323,80.556816 81.214615,80.322693 81.660660,80.002602 
	C81.858047,79.877922 82.025826,80.041519 81.981476,80.339554 
	C81.675217,80.849533 81.378761,80.986885 81.047737,81.049629 
	C81.047737,81.049629 80.947968,80.940628 80.899185,80.885147 
z"/>
<path fill="#FAF4FB" opacity="1.000000" stroke="none" 
	d="
M135.860992,13.690656 
	C136.009995,14.016144 136.008652,14.501144 136.011658,14.743462 
	C135.840546,15.540915 135.666443,16.096054 134.916824,16.825735 
	C133.893997,17.002884 133.446701,17.005491 132.605698,17.102501 
	C131.807999,18.855854 131.074738,20.510818 131.054611,22.174414 
	C130.942413,31.446384 131.003006,40.720444 131.004501,49.993790 
	C131.004501,49.993790 130.999924,49.999928 130.997314,50.005020 
	C129.931427,50.006889 128.868164,50.003666 127.404434,49.530479 
	C127.002029,44.832123 127.299561,40.572414 126.862183,36.389553 
	C126.665932,34.512665 124.998894,32.789566 123.999268,30.996679 
	C123.997742,27.306042 123.996216,23.615404 124.314377,19.418579 
	C125.091232,18.276073 125.548401,17.639759 126.393356,16.995251 
	C130.830872,16.856407 131.294540,14.193615 131.007935,11.001043 
	C132.575958,11.789085 134.143982,12.577127 135.860992,13.690656 
z"/>
<path fill="#EFFBF4" opacity="1.000000" stroke="none" 
	d="
M130.996750,10.606178 
	C131.294540,14.193615 130.830872,16.856407 126.058884,16.994030 
	C124.890770,17.000589 124.444923,17.000179 123.999084,16.999771 
	C124.000824,13.937603 124.002556,10.875434 124.009048,7.408895 
	C126.601654,7.499658 130.380966,5.404470 130.996750,10.606178 
z"/>
<path fill="#F9F4F2" opacity="1.000000" stroke="none" 
	d="
M54.788269,9.277889 
	C56.126820,9.015160 57.255497,9.025970 58.807201,9.067129 
	C53.923779,12.239253 48.617325,15.381027 42.991142,18.562973 
	C41.738094,13.627802 43.549728,11.603440 48.250237,11.499850 
	C50.372906,11.453071 52.469799,10.237000 54.788269,9.277889 
z"/>
<path fill="#F4E8D6" opacity="1.000000" stroke="none" 
	d="
M32.541321,26.953794 
	C31.148594,28.903624 29.388836,30.843395 27.319138,32.895111 
	C26.992893,32.676876 27.026627,32.335060 26.952925,32.018238 
	C25.345118,25.106796 25.342823,25.107330 32.541321,26.953794 
z"/>
<path fill="#F9F4F2" opacity="1.000000" stroke="none" 
	d="
M37.750984,22.088638 
	C37.034763,23.185738 35.919506,24.249817 34.487785,25.439991 
	C35.231529,24.395929 36.291740,23.225775 37.750984,22.088638 
z"/>
<path fill="#F9F4F2" opacity="1.000000" stroke="none" 
	d="
M42.150539,18.498667 
	C41.643890,19.523798 40.772175,20.366198 39.590977,21.273085 
	C40.116150,20.330360 40.950809,19.323149 42.150539,18.498667 
z"/>
<path fill="#F9F4F2" opacity="1.000000" stroke="none" 
	d="
M39.021568,21.250027 
	C39.082127,21.499521 38.861359,21.790525 38.357521,22.124203 
	C38.296375,21.875095 38.518307,21.583315 39.021568,21.250027 
z"/>
<path fill="#F24415" opacity="1.000000" stroke="none" 
	d="
M3.994884,89.370636 
	C4.163068,89.872971 4.321212,90.748695 4.228979,91.804138 
	C3.980682,91.237244 3.982763,90.490639 3.994884,89.370636 
z"/>
<path fill="#F24415" opacity="1.000000" stroke="none" 
	d="
M3.768237,92.097916 
	C3.889251,92.305473 3.710999,92.567558 3.235556,92.886368 
	C3.114840,92.680061 3.291708,92.416512 3.768237,92.097916 
z"/>
<path fill="#F24415" opacity="1.000000" stroke="none" 
	d="
M5.093856,105.225876 
	C5.312500,105.110489 5.574932,105.304031 5.872821,105.813148 
	C5.658174,105.918159 5.401295,105.720184 5.093856,105.225876 
z"/>
<path fill="#FCE0D1" opacity="1.000000" stroke="none" 
	d="
M80.929871,81.344711 
	C81.378761,80.986885 81.675217,80.849533 82.062035,80.424622 
	C82.876633,79.844597 83.566315,79.477531 84.460655,78.896027 
	C86.688950,77.707726 88.712585,76.733856 90.978424,75.523865 
	C98.445404,73.537186 105.605453,73.185432 112.836922,76.562653 
	C111.070786,76.743256 108.999252,76.946205 107.089317,76.482925 
	C96.457855,73.904114 82.849724,78.960915 77.434052,89.998146 
	C76.223984,92.464272 74.396767,94.627579 72.519524,96.992096 
	C72.834328,94.979774 73.483299,92.905663 74.166946,90.467545 
	C74.639572,89.462151 75.077522,88.820755 75.600433,87.899780 
	C76.159279,87.009407 76.633163,86.398628 77.181267,85.504135 
	C78.440994,84.026886 79.626503,82.833344 80.929871,81.344711 
z"/>
<path fill="#FDF3F9" opacity="1.000000" stroke="none" 
	d="
M84.001602,120.995422 
	C83.785973,119.461349 83.570343,117.927277 83.354706,116.393204 
	C85.155190,116.330948 87.459389,115.541481 88.646950,116.364082 
	C90.839218,117.882629 92.848625,120.103271 94.072083,122.475960 
	C95.753723,125.737228 93.714577,127.674042 89.352585,126.631638 
	C89.472099,122.403694 87.525581,120.940285 84.001602,120.995422 
z"/>
<path fill="#FCE0D1" opacity="1.000000" stroke="none" 
	d="
M120.584702,80.989319 
	C120.980927,81.429939 121.149132,81.709801 121.631622,82.041237 
	C122.187012,82.571243 122.518005,82.995636 123.077896,83.569786 
	C123.637657,84.128372 123.968544,84.537201 124.531609,85.071640 
	C125.150688,85.868530 125.537590,86.539818 126.137840,87.415039 
	C127.275230,89.811737 128.199265,92.004509 129.109222,94.563812 
	C127.662888,94.279770 126.230606,93.629181 124.425087,92.572823 
	C123.080132,90.119843 122.374252,87.881401 121.072388,86.071701 
	C119.265068,83.559357 117.010460,81.368797 114.947342,79.040474 
	C114.967979,78.825058 114.988609,78.609650 115.065460,78.074310 
	C116.836716,78.797119 118.551750,79.839859 120.584702,80.989319 
z"/>
<path fill="#FCE0D1" opacity="1.000000" stroke="none" 
	d="
M85.317932,129.123230 
	C82.542519,126.747055 80.105400,124.487900 77.373062,122.077652 
	C76.731781,121.169662 76.385696,120.412766 75.994019,119.346550 
	C77.515305,119.819839 79.082184,120.602448 80.959579,121.995438 
	C83.501053,124.424759 85.732018,126.243698 87.962975,128.062637 
	C92.809273,129.544693 97.655571,131.026764 102.777924,132.805176 
	C96.691696,134.351257 91.075836,132.237823 85.317932,129.123230 
z"/>
<path fill="#EFFBFA" opacity="1.000000" stroke="none" 
	d="
M114.694992,79.232330 
	C117.010460,81.368797 119.265068,83.559357 121.072388,86.071701 
	C122.374252,87.881401 123.080132,90.119843 124.068970,92.567345 
	C122.787643,92.093788 121.266113,91.424271 120.238480,90.302361 
	C118.266365,88.149315 116.395706,85.851295 114.852890,83.382263 
	C114.221581,82.371941 114.550537,80.761574 114.694992,79.232330 
z"/>
<path fill="#EEFBF5" opacity="1.000000" stroke="none" 
	d="
M88.080887,127.834930 
	C85.732018,126.243698 83.501053,124.424759 81.123245,122.296585 
	C81.843307,121.829277 82.710213,121.671196 83.789368,121.254272 
	C87.525581,120.940285 89.472099,122.403694 89.004959,126.595398 
	C88.736984,127.201805 88.467896,127.404510 88.080887,127.834930 
z"/>
<path fill="#FCE0D1" opacity="1.000000" stroke="none" 
	d="
M115.822838,128.821777 
	C112.929398,130.365891 109.824600,131.660202 106.337959,132.912537 
	C109.174568,131.437683 112.393021,130.004837 115.822838,128.821777 
z"/>
<path fill="#FCE0D1" opacity="1.000000" stroke="none" 
	d="
M72.218407,107.765686 
	C71.779800,105.553253 71.626968,103.068687 71.684296,100.265724 
	C72.097694,102.462738 72.300934,104.978134 72.218407,107.765686 
z"/>
<path fill="#FCE0D1" opacity="1.000000" stroke="none" 
	d="
M75.983658,118.660248 
	C74.999657,117.256149 74.038925,115.465454 73.064163,113.324265 
	C74.035728,114.740402 75.021332,116.507019 75.983658,118.660248 
z"/>
<path fill="#FCE0D1" opacity="1.000000" stroke="none" 
	d="
M73.042648,112.668518 
	C72.757439,112.482239 72.478294,112.021500 72.246002,111.281952 
	C72.544815,111.466774 72.796761,111.930412 73.042648,112.668518 
z"/>
<path fill="#FCE0D1" opacity="1.000000" stroke="none" 
	d="
M129.042831,95.219070 
	C129.355606,95.422928 129.627548,95.921303 129.856415,96.712326 
	C129.542908,96.507843 129.272446,96.010719 129.042831,95.219070 
z"/>
<path fill="#FCE0D1" opacity="1.000000" stroke="none" 
	d="
M118.838394,127.118027 
	C118.882202,127.321846 118.688126,127.585213 118.237747,127.880577 
	C118.089981,127.585167 118.296333,127.340172 118.838394,127.118027 
z"/>
<path fill="#FCE0D1" opacity="1.000000" stroke="none" 
	d="
M119.849274,126.112976 
	C119.922920,126.328423 119.741539,126.622131 119.308258,126.996536 
	C119.235664,126.781906 119.414955,126.486580 119.849274,126.112976 
z"/>
<path fill="#FCE0D1" opacity="1.000000" stroke="none" 
	d="
M121.981758,124.150635 
	C122.098785,124.334831 122.034561,124.500359 121.747101,124.811157 
	C121.616074,124.681618 121.708290,124.406792 121.981758,124.150635 
z"/>
<path fill="#FCE0D1" opacity="1.000000" stroke="none" 
	d="
M122.848091,123.165909 
	C122.945747,123.381668 122.799446,123.692589 122.398529,124.084229 
	C122.297318,123.863655 122.450722,123.562363 122.848091,123.165909 
z"/>
<path fill="#EFFBFB" opacity="1.000000" stroke="none" 
	d="
M132.999390,17.008097 
	C133.446701,17.005491 133.893997,17.002884 134.677063,16.999987 
	C135.007706,27.685781 135.002594,38.371868 134.995697,49.525906 
	C134.550949,49.992577 134.108002,49.991299 133.331787,49.520493 
	C132.998810,38.370010 132.999100,27.689053 132.999390,17.008097 
z"/>
<path fill="#F4FAF1" opacity="1.000000" stroke="none" 
	d="
M123.997231,31.464989 
	C124.998894,32.789566 126.665932,34.512665 126.862183,36.389553 
	C127.299561,40.572414 127.002029,44.832123 127.005600,49.527603 
	C126.004021,48.591896 124.257423,47.250393 124.135780,45.774929 
	C123.757660,41.188358 123.995995,36.550968 123.997231,31.464989 
z"/>
<path fill="#F4FAF1" opacity="1.000000" stroke="none" 
	d="
M123.996460,17.333796 
	C124.444923,17.000179 124.890770,17.000589 125.671082,17.002220 
	C125.548401,17.639759 125.091232,18.276073 124.315430,18.958256 
	C123.995804,18.558687 123.994820,18.113253 123.996460,17.333796 
z"/>
<path fill="#F6F9ED" opacity="1.000000" stroke="none" 
	d="
M132.605698,17.102501 
	C132.999100,27.689053 132.998810,38.370010 132.999512,49.517887 
	C132.556900,49.987907 132.113312,49.991005 131.337097,49.993946 
	C131.003006,40.720444 130.942413,31.446384 131.054611,22.174414 
	C131.074738,20.510818 131.807999,18.855854 132.605698,17.102501 
z"/>
</svg>