<svg xmlns="http://www.w3.org/2000/svg" width="3208" height="1122" preserveAspectRatio="none" style="display:block" viewBox="0 0 3208 1122" id="d43c162e-0bc4-36f1-b7f8-d603048be142">
  <path fill="#F34213" d="M 1108.89 330.512 C 1131.49 326.989 1184.16 334.391 1207.63 338.298 L 1207.63 511.329 C 1203.66 515.246 1199.46 519.132 1195.4 522.972 L 1286.52 523.006 C 1282.75 519.093 1278.87 515.284 1274.89 511.585 L 1274.92 358.597 C 1311.02 374.213 1344.6 395.09 1374.58 420.548 C 1451.3 486.571 1498.83 580.231 1506.81 681.131 C 1515 782.133 1482.24 882.187 1415.89 958.782 C 1362.73 1020.34 1289.84 1065.92 1209.97 1082.75 C 1185.45 1087.92 1168.82 1089.01 1144.24 1090.82 C 1092.37 1092.55 1040.69 1083.81 992.278 1065.1 C 899.111 1029.72 824.189 955.46 783.642 864.858 C 743.243 772.802 740.63 668.558 776.367 574.594 C 807.572 492.815 865.841 424.187 941.477 380.133 C 955.897 371.807 970.834 365.19 986.004 358.415 L 986.997 511.83 C 982.504 514.698 977.232 518.881 972.988 522.219 C 982.441 521.793 993.966 522.74 1003.69 522.843 L 1066.51 523.012 C 1062.58 519.054 1058.6 514.702 1054 511.616 C 1053.71 494.114 1055.01 476.198 1054.99 458.475 L 1054 337.726 C 1074.93 333.524 1088.73 333.1 1108.89 330.512 z M 1136.49 834.878 C 1198.61 831.142 1246.02 777.893 1242.55 715.759 C 1239.08 653.625 1186.03 605.989 1123.88 609.196 C 1061.36 612.423 1013.37 665.861 1016.87 728.369 C 1020.36 790.878 1074 838.637 1136.49 834.878 z"/>
  <path fill="#0B210F" d="M2807.48 317.546C2812.82 316.693 2819.27 316.959 2824.49 316.891 3043.76 314.061 3223.51 517.798 3205.41 733.935 3204.36 746.553 3203.33 760.715 3203.2 773.228 3175.25 773.336 3148.36 772.242 3120.74 772.167L2889.16 773.329C2863.8 773.347 2650.02 771.22 2643.56 776.302 2643.49 776.742 2643.33 778.022 2643.41 778.366 2650.33 808.489 2668.08 838.036 2690.04 858.674 2726.37 892.826 2776.29 910.3 2825.39 908.765 2887.65 906.818 2929.65 884.535 2971.8 840.731L3187.64 841.821C3176.73 876.79 3145.09 927.003 3121.73 956.25 3057.95 1036.16 2965.03 1087.46 2863.43 1098.86 2764.86 1109.46 2666.11 1080.6 2588.77 1018.59 2504.68 952.597 2450.51 855.672 2438.38 749.464 2415.16 540.793 2579.74 336.515 2790.2 318.706 2795.97 318.218 2801.75 318.181 2807.48 317.546zM2836.5 625.92 3004.04 625.92C2976.56 571.597 2937.23 529.14 2878.08 508.386 2862.06 502.767 2834.68 498.432 2817.69 499.447 2811.66 500.426 2805.72 500.948 2799.66 501.626 2736.71 508.675 2678.99 552.56 2653.08 609.964 2650.95 614.667 2649.24 618.489 2648.22 623.618L2648.73 625.573C2666.65 626.805 2695.47 625.951 2714.08 625.95L2836.5 625.92zM350.026 327.534C351.059 327.376 351.817 327.251 352.866 327.196 440.33 322.588 528.279 352.28 593.965 409.932 660.794 468.083 703.294 549.252 713.018 637.303 717.397 678.934 715.385 718.263 715.162 759.723L714.249 949.463C714.221 978.726 713.328 1009.12 714.526 1038.31 715.585 1064.08 724.618 1074.23 742.925 1090.23 655.133 1089.48 574.896 1088.28 486.53 1091.14 506.936 1074.25 516.198 1062.6 516.991 1034.69 517.509 1016.48 517.681 998.316 517.701 980.062L517.678 871.454 518.327 744.743C518.417 708.921 519.234 677.156 513.6 641.605 504.197 582.258 457.155 536.074 396.911 528.341 387.723 526.897 378.419 526.337 369.124 526.669 330.893 527.948 296.354 540.985 270.002 569.309 252.159 588.394 239.802 611.944 234.238 637.471 228.538 663.791 228.617 711.497 228.796 738.55L229.47 833.874 229.051 964.879C229.043 985.892 228.914 1006.79 229.398 1027.79 230.072 1057 235.364 1070.31 256.803 1090.19 210.541 1092.85 167.594 1091.93 121.604 1091.28L2.29567 1090.29C23.4576 1071.55 31.3577 1057.22 32.9306 1028.58 34.6194 997.827 33.8844 967.966 33.5542 937.249L33.0591 779.859C32.8532 653.775 26.6617 550.025 115.68 447.849 180 374.022 252.997 336.686 350.026 327.534zM1552.98 329.783C1585.23 341.06 1694.79 336.137 1732.02 336.28L1987.95 337.925C2031.97 338.036 2076.24 335.822 2120.7 337.349 2118.21 357.823 2118.97 389.029 2118.96 410.256 2118.6 445.944 2118.97 481.634 2120.07 517.306L1961.06 704.338C1908.01 766.03 1851.33 830.755 1801.51 894.952 1819.57 894.053 1845.55 894.949 1864.37 894.958L1989.79 895.045C2037.99 895.176 2070.48 897.452 2119.04 886.152 2118.97 952.443 2120.33 1018.73 2118.99 1085 2118.85 1091.75 2120.17 1104.35 2118.4 1110.48L2115.98 1111.17C2070.03 1077.75 2034.35 1081.57 1981.3 1081.89L1888.49 1081.97 1544.82 1082.03C1545.37 1024.58 1544.47 968.65 1544.02 911.354 1563.44 886.164 1589.99 857.395 1611.19 832.365L1782.61 629.927C1814.21 592.718 1847.38 556.886 1876.98 518.016L1552 517.984C1551.65 496.963 1554.2 471.241 1553.87 449.778 1553.69 437.667 1553.18 425.595 1553.07 413.5L1552.98 329.783zM2373.44 4.75901C2374.2 55.5907 2372.32 106.262 2372.3 157.309L2372.39 599.153 2373.25 737.25C2373.29 771.822 2369.91 823.05 2379.51 856.818 2384.04 872.719 2405.1 883.099 2420.05 889.245L2420.03 1090.04C2375.69 1091.15 2312.39 1065.98 2279.04 1037.28 2271.95 1032.7 2261.78 1023.12 2255.56 1016.95 2219.14 980.786 2191.86 928.49 2181.81 878.203 2174.98 844.049 2176.85 799.114 2176.92 763.235L2177.02 625.401 2176.97 73.7487C2189.94 73.6898 2202.93 74.1053 2215.89 73.9192 2264.74 73.2173 2312.58 61.8792 2349.93 28.7315 2357.84 21.7113 2365.92 12.4727 2373.44 4.75901z"/>
</svg>
